Coordinates
version=1
nRows=16
nColumns=40
inDegrees=yes

Units are S.I. units (second, meters, Newtons, ...)
Angles are in degrees.

endheader
time	pelvis_tilt	pelvis_list	pelvis_rotation	pelvis_tx	pelvis_ty	pelvis_tz	hip_flexion_r	hip_adduction_r	hip_rotation_r	knee_angle_r	knee_angle_r_beta	ankle_angle_r	subtalar_angle_r	mtp_angle_r	hip_flexion_l	hip_adduction_l	hip_rotation_l	knee_angle_l	knee_angle_l_beta	ankle_angle_l	subtalar_angle_l	mtp_angle_l	lumbar_extension	lumbar_bending	lumbar_rotation	arm_flex_r	arm_add_r	arm_rot_r	elbow_flex_r	pro_sup_r	wrist_flex_r	wrist_dev_r	arm_flex_l	arm_add_l	arm_rot_l	elbow_flex_l	pro_sup_l	wrist_flex_l	wrist_dev_l
     38.00250000	     -1.47705768	     -3.57984871	     -2.67881687	      1.10333326	      0.92723269	      0.44042633	     18.37965955	     -0.92684368	     -8.64675992	     22.01637111	     22.01637111	      6.47930090	     -3.16128633	     -3.01721358	     -0.99357547	    -10.04085590	    -12.42110697	     25.02195429	     25.02195429	     17.61877599	     -6.78490948	     -3.64392170	     -9.39613655	      4.08098220	      1.10650181	     -2.38087136	    -13.73337377	     -4.95841056	     38.46352753	     45.21167072	      0.00000000	      0.00000000	     12.11163329	    -16.01637858	    -17.68777436	     63.28750879	     46.84476827	      0.00000000	      0.00000000
     38.01628571	     -1.69218377	     -3.67756009	     -2.22166922	      1.10374465	      0.92756401	      0.44398707	     18.02742599	     -0.73142453	     -9.39232051	     21.82362131	     21.82362131	      6.82250790	     -2.72343622	     -3.07952251	      0.55819113	    -10.79451292	    -11.34529740	     27.81977274	     27.81977274	     15.64163212	     -8.55439157	     -6.63449292	     -9.16518542	      4.21176273	      1.26521158	     -2.78255913	    -14.26066264	     -4.04231500	     42.20203276	     45.06349280	      0.00000000	      0.00000000	     12.25419754	    -15.73906827	    -16.43404205	     60.19699365	     46.75982123	      0.00000000	      0.00000000
     38.03007143	     -1.78186527	     -3.82539821	     -1.76511343	      1.10398850	      0.92801851	      0.44752267	     17.52356188	     -0.48511161	    -10.17313190	     21.58898361	     21.58898361	      7.17031128	     -2.20288827	     -3.23132536	      2.27481043	    -11.61107170	    -10.19955746	     31.15527461	     31.15527461	     14.21941081	    -10.02314164	     -7.75049524	     -9.14476329	      4.33192185	      0.94878745	     -1.91236708	    -14.43878677	     -3.99037755	     43.97740846	     45.02210241	      0.00000000	      0.00000000	     11.71402810	    -15.60815138	    -15.84587887	     58.41255734	     46.70805090	      0.00000000	      0.00000000
     38.04385714	     -1.88575342	     -3.95742130	     -1.28321107	      1.10396607	      0.92835286	      0.45084774	     17.03785889	     -0.26935200	    -10.99998076	     21.32540645	     21.32540645	      7.51981893	     -1.61874125	     -3.37835624	      4.24657227	    -12.35272261	     -8.89691790	     34.76598028	     34.76598028	     12.60005833	    -11.58576844	     -8.67258048	     -9.12047325	      4.43124431	      0.78276349	     -1.13105060	    -14.73210339	     -3.88190719	     46.04830683	     44.96375015	      0.00000000	      0.00000000	     11.38147303	    -15.36233752	    -15.18306980	     56.35317892	     46.64410520	      0.00000000	      0.00000000
     38.05764286	     -1.95215795	     -4.09925393	     -0.79295171	      1.10371765	      0.92863893	      0.45389675	     16.52800348	     -0.05725233	    -11.83816745	     21.06206262	     21.06206262	      7.85899648	     -1.00976628	     -3.51410486	      6.35707339	    -13.01386747	     -7.49586600	     38.53966179	     38.53966179	     10.93506549	    -13.08215031	     -9.10780958	     -9.16728239	      4.57458462	      0.76638475	     -0.41327457	    -15.17015734	     -3.74680650	     48.34970227	     44.89714172	      0.00000000	      0.00000000	     11.17592590	    -15.01014552	    -14.39544505	     54.10646890	     46.56750731	      0.00000000	      0.00000000
     38.07142857	     -2.04218221	     -4.29070281	     -0.31242364	      1.10322410	      0.92880938	      0.45677212	     16.02728646	      0.24703610	    -12.54160098	     20.70984785	     20.70984785	      8.13632541	     -0.59673516	     -3.58385316	      8.64789480	    -13.68403444	     -6.13354448	     42.41699675	     42.41699675	      9.39407167	    -14.14822516	     -9.02242688	     -9.22792243	      4.73911041	      0.74366966	      0.67780186	    -15.56305259	     -3.79276259	     49.84623414	     44.86003851	      0.00000000	      0.00000000	     10.64340296	    -14.55062635	    -13.87629572	     52.62316813	     46.50831731	      0.00000000	      0.00000000
     38.08521429	     -2.01473504	     -4.33987682	      0.17696872	      1.10252963	      0.92900984	      0.45913120	     15.56254855	      0.29537376	    -13.33604154	     20.66740563	     20.66740563	      8.56196466	      0.08685962	     -3.81568933	     10.87952928	    -13.96107981	     -4.57135624	     46.21602374	     46.21602374	      8.27248057	    -15.12884846	     -7.50928111	     -9.42221748	      4.86020617	      0.85427315	      1.39342072	    -16.25803602	     -3.50273773	     52.90563786	     44.76533222	      0.00000000	      0.00000000	     10.74862060	    -14.17130017	    -12.82090451	     49.47977375	     46.40082071	      0.00000000	      0.00000000
     38.09900000	     -2.06223449	     -4.48241189	      0.64676467	      1.10158375	      0.92906855	      0.46130116	     15.12154511	      0.50015855	    -14.00814656	     20.44044170	     20.44044170	      8.86419172	      0.47095401	     -3.88702889	     13.32076914	    -14.30655826	     -3.18663596	     50.03484610	     50.03484610	      7.99390440	    -15.29039229	     -4.21440767	     -9.52831499	      5.05183694	      1.61286111	      1.62924290	    -17.27213259	     -3.41354695	     56.08032959	     44.70056260	      0.00000000	      0.00000000	     11.31116907	    -13.43317080	    -11.30201026	     46.21543822	     46.26589531	      0.00000000	      0.00000000
     38.11278571	     -2.09612838	     -4.55169465	      1.09376132	      1.10049279	      0.92913070	      0.46321951	     14.72216277	      0.64115592	    -14.47140413	     20.29108208	     20.29108208	      9.17407294	      0.64857345	     -3.99529608	     15.59117115	    -14.47309218	     -1.92509154	     53.25273826	     53.25273826	      7.01956273	    -15.70518020	     -3.02800966	     -9.68599860	      5.16248228	      1.37907965	      3.30988201	    -17.59367578	     -3.75292732	     57.58153626	     44.68751294	      0.00000000	      0.00000000	     10.49271572	    -13.04991598	    -10.77369105	     44.68117844	     46.20261112	      0.00000000	      0.00000000
     38.12657143	     -2.09366024	     -4.62038404	      1.51267478	      1.09922134	      0.92924904	      0.46482732	     14.30898397	      0.75484179	    -14.96937445	     20.15750546	     20.15750546	      9.45570569	      0.92275596	     -4.13826261	     17.88093617	    -14.52101226	     -0.72021028	     56.34681420	     56.34681420	      7.50572452	    -15.39191668	      1.15410033	     -9.88003019	      5.31272465	      1.95464200	      4.20222712	    -18.54382765	     -3.66200820	     59.88012288	     44.66867800	      0.00000000	      0.00000000	     10.66245309	    -12.33768638	     -9.61052317	     41.68169784	     46.09706115	      0.00000000	      0.00000000
     38.14035714	     -2.14885943	     -4.69182811	      1.91241642	      1.09780572	      0.92935747	      0.46625092	     13.93538356	      0.91320597	    -15.29669769	     19.93180718	     19.93180718	      9.68844048	      0.95540573	     -4.17676616	     19.97723391	    -14.54188645	      0.25338830	     58.58430627	     58.58430627	      6.75700555	    -15.65323624	      1.60069665	    -10.01676793	      5.43368890	      1.94767792	      6.03220320	    -18.95662747	     -3.99719898	     60.99665314	     44.66138661	      0.00000000	      0.00000000	      9.67161473	    -11.78983223	     -9.31237193	     40.66660746	     46.05123729	      0.00000000	      0.00000000
     38.15414286	     -2.20946534	     -4.68315621	      2.27768584	      1.09632797	      0.92954976	      0.46747988	     13.57101005	      0.98044385	    -15.57969237	     19.70470064	     19.70470064	      9.93779300	      1.02550575	     -4.25265083	     21.95210032	    -14.41172361	      1.06685185	     60.31100372	     60.31100372	      6.47608305	    -15.77853415	      2.57923783	    -10.15112952	      5.48861461	      1.84165638	      7.87633154	    -19.34445074	     -4.09678569	     62.43369893	     44.63877876	      0.00000000	      0.00000000	      8.76120736	    -11.30473006	     -8.92414731	     39.07986064	     45.99463688	      0.00000000	      0.00000000
     38.16792857	     -2.21987496	     -4.65250707	      2.56573308	      1.09477000	      0.92989358	      0.46850576	     13.16310371	      1.03165690	    -15.75254338	     19.47655825	     19.47655825	     10.11506739	      1.04422781	     -4.27442187	     23.67400405	    -14.28406495	      1.57972465	     61.38959278	     61.38959278	      6.26989224	    -15.89249932	      2.92139205	    -10.36969356	      5.52923805	      2.25128545	      9.65930624	    -19.99311117	     -4.31598954	     63.36173111	     44.62965627	      0.00000000	      0.00000000	      7.87132590	    -10.60999823	     -8.67972567	     38.18143219	     45.95256551	      0.00000000	      0.00000000
     38.18171429	     -2.32541613	     -4.59007955	      2.90197861	      1.09311981	      0.93021645	      0.46941689	     12.78144124	      1.06157310	    -15.97543884	     19.08819303	     19.08819303	     10.25546947	      1.10680807	     -4.35166836	     25.41644345	    -14.03524990	      2.08906521	     61.95336621	     61.95336621	      6.58473494	    -15.89928607	      4.24549045	    -10.45019425	      5.50679800	      2.03773561	     11.56288900	    -20.29187591	     -4.10612112	     65.15943751	     44.58876622	      0.00000000	      0.00000000	      7.01356014	    -10.18117712	     -8.23148307	     35.91450129	     45.88927507	      0.00000000	      0.00000000
     38.19550000	     -2.45265871	     -4.54600065	      3.17401612	      1.09142995	      0.93056169	      0.47014152	     12.43161971	      1.10838078	    -16.15020077	     18.68906952	     18.68906952	     10.29000074	      1.11388662	     -4.57818733	     27.02347170	    -13.81672113	      2.39282019	     61.95462505	     61.95462505	      7.31080961	    -15.81916065	      6.13896522	    -10.51970113	      5.53948476	      2.61704152	     13.00327399	    -21.18560322	     -3.86861737	     66.68215593	     44.59119890	      0.00000000	      0.00000000	      6.65813093	     -9.45882668	     -7.71874463	     33.56897815	     45.83903041	      0.00000000	      0.00000000
     38.20928571	     -2.58767479	     -4.48838063	      3.44215432	      1.08969629	      0.93096745	      0.47075917	     12.04331545	      1.15755989	    -16.28966901	     18.19987827	     18.19987827	     10.37387737	      1.13032681	     -4.53977594	     28.39599703	    -13.58274871	      2.54991992	     61.19174669	     61.19174669	      7.40579580	    -16.12011062	      6.30239471	    -10.60408185	      5.54193513	      2.74129956	     14.90275956	    -21.41908725	     -4.25480092	     67.81135128	     44.58544925	      0.00000000	      0.00000000	      5.43354969	     -8.96132289	     -7.57793326	     32.77558965	     45.80474075	      0.00000000	      0.00000000
